# xmcd
#
# Track frame offsets:
#	150
#	15880
#	30572
#	52592
#	67511
#	82019
#	95426
#	111835
#	128618
#	148296
#	165424
#	180951
#	194487
#	210392
#	223756
#	241531
#	260111
#	273401
#	286488
#
# Disc length: 4001 seconds
#
# Revision: 0
# Processed by: cddbd v1.5.1PL0 Copyright (c) Steve Scherf et al.
# Submitted via: audiograbber 1.83.01
#
DISCID=fc0f9f13
DTITLE=Brooks and Dunn - The Greatest Hits Collection - Brooks and Dunn - The Great
DTITLE=est Hits Collection
DYEAR=1997
DGENRE=Country
TTITLE0=My Maria
TTITLE1=Honky Tonk Truth
TTITLE2=You're Gonna Miss Me When I'm Gone
TTITLE3=Boot Scootin' Boogie
TTITLE4=He's Got You
TTITLE5=Hard Workin' Man
TTITLE6=That Ain't No Way To Go
TTITLE7=Rock My World (Little Country Girl)
TTITLE8=Neon Moon
TTITLE9=Lost And Found
TTITLE10=She's Not The Cheatin' Kind
TTITLE11=Brand New Man
TTITLE12=Days Of Thunder
TTITLE13=We'll Burn That Bridge
TTITLE14=She Used To Be Mine
TTITLE15=Mama Don't Get Dressed Up For Nothing
TTITLE16=My Next Broken Heart
TTITLE17=Whiskey Under The Bridge
TTITLE18=Little Miss Honky Tonk
EXTD=\n
EXTT0=
EXTT1=
EXTT2=
EXTT3=
EXTT4=
EXTT5=
EXTT6=
EXTT7=
EXTT8=
EXTT9=
EXTT10=
EXTT11=
EXTT12=
EXTT13=
EXTT14=
EXTT15=
EXTT16=
EXTT17=
EXTT18=
PLAYORDER=
